<svg width="12" height="24" xmlns="http://www.w3.org/2000/svg" xmlns:xlink="http://www.w3.org/1999/xlink"><defs><circle id="a" cx="11.948" cy="11.948" r="11.948"/></defs><g fill="none" fill-rule="evenodd"><mask id="b" fill="#fff"><use xlink:href="#a"/></mask><path d="M-.703 0h11.948v.956H-.703V0zm0 1.912h11.948v.956H-.703v-.956zm0 1.911h11.948v.956H-.703v-.956zm0 1.912h11.948v.956H-.703v-.956zm0 1.912h11.948v.956H-.703v-.956zm0 1.912h11.948v.955H-.703V9.56zm0 1.911h11.948v.956H-.703v-.956zm0 1.912h11.948v.956H-.703v-.956zm0 1.912h11.948v.956H-.703v-.956zm0 1.912h11.948v.955H-.703v-.955zm0 1.911h11.948v.956H-.703v-.956zm0 1.912h11.948v.956H-.703v-.956zm0 1.912h11.948v.956H-.703v-.956z" fill="#1D1D1D" mask="url(#b)"/></g></svg>