<svg width="24" height="24" xmlns="http://www.w3.org/2000/svg"><g fill="none"><path d="M15.473 1.58A2.139 2.139 0 0 0 12.8.215a2.139 2.139 0 0 0-1.366 2.673l5.483 16.858a2.116 2.116 0 0 0 2.576 1.308c1.131-.332 1.814-1.522 1.444-2.615 0-.039-5.464-16.859-5.464-16.859z" fill="#ECB32D"/><path d="M6.985 4.332a2.139 2.139 0 0 0-2.673-1.366 2.139 2.139 0 0 0-1.366 2.673L8.43 22.498a2.116 2.116 0 0 0 2.576 1.307c1.132-.332 1.815-1.522 1.444-2.615 0-.039-5.464-16.858-5.464-16.858z" fill="#63C1A0"/><path d="M22.38 15.532a2.139 2.139 0 0 0 1.366-2.673 2.139 2.139 0 0 0-2.673-1.366L4.195 16.995a2.116 2.116 0 0 0-1.307 2.576c.332 1.131 1.522 1.814 2.614 1.444.04 0 16.878-5.483 16.878-5.483z" fill="#E01A59"/><path d="M7.707 20.312c1.093-.351 2.517-.82 4.04-1.307-.352-1.093-.82-2.517-1.308-4.04L6.4 16.274l1.307 4.04z" fill="#331433"/><path d="M16.215 17.541c1.522-.487 2.946-.956 4.039-1.307-.352-1.093-.82-2.517-1.308-4.039l-4.039 1.307 1.308 4.04z" fill="#D62027"/><path d="M19.61 7.044a2.139 2.139 0 0 0 1.366-2.673 2.139 2.139 0 0 0-2.674-1.366L1.444 8.488a2.116 2.116 0 0 0-1.307 2.575c.331 1.132 1.522 1.815 2.614 1.444.04 0 16.859-5.463 16.859-5.463z" fill="#89D3DF"/><path d="M4.956 11.805c1.093-.351 2.517-.82 4.04-1.307-.489-1.522-.957-2.947-1.308-4.04l-4.04 1.308 1.308 4.039z" fill="#258B74"/><path d="M13.444 9.054c1.522-.488 2.946-.956 4.039-1.308-.488-1.522-.956-2.946-1.307-4.039l-4.04 1.308 1.308 4.039z" fill="#819C3C"/></g></svg>