<svg width="21" height="44" viewBox="0 0 21 44" version="1.1" xmlns="http://www.w3.org/2000/svg" xmlns:xlink="http://www.w3.org/1999/xlink"><title>Combined Shape Copy 4</title><desc>Created with Sketch.</desc><g id="Symbols" stroke="none" stroke-width="1" fill="none" fill-rule="evenodd" opacity=".3"><g id="Footer" transform="translate(-64.000000, -33.000000)" fill="#432648"><path d="M85,33 L85,34.7255052 L77.5531977,34.7255052 C79.8613515,33.7514756 82.3695414,33.1507042 85,33 Z M74.2011422,36.4885048 L85,36.4885048 L85,38.2515043 L71.8104549,38.2515043 C72.5653693,37.6132573 73.3639435,37.023933 74.2011422,36.4885048 Z M69.9525709,40.0145039 L85,40.0145039 L85,41.7775034 L68.4608659,41.7775034 C68.9272584,41.1642345 69.4252913,40.5757799 69.9525709,40.0145039 Z M67.2501368,43.540503 L85,43.540503 L85,45.3035025 L66.2703348,45.3035025 C66.5703193,44.6997802 66.8974437,44.1115964 67.2501368,43.540503 Z M65.4895621,47.0665021 L85,47.0665021 L85,48.8295016 L64.8864587,48.8295016 C65.0628745,48.2309196 65.2643064,47.6428605 65.4895621,47.0665021 Z M64.4463308,50.5925011 L85,50.5925011 L85,52.3555007 L64.1589988,52.3555007 C64.2310782,51.760219 64.327184,51.1722282 64.4463308,50.5925011 Z M64.0175238,54.1185002 L85,54.1185002 L85,55.8814998 L64.0175238,55.8814998 C64.0058778,55.5890989 64,55.2952274 64,55 C64,54.7047726 64.0058778,54.4109011 64.017524,54.1184934 Z M64.1589988,57.6444993 L85,57.6444993 L85,59.4074989 L64.4463308,59.4074989 C64.327184,58.8277718 64.2310782,58.239781 64.1589988,57.6444993 Z M64.8864587,61.1704984 L85,61.1704984 L85,62.9334979 L65.4895621,62.9334979 C65.2643064,62.3571395 65.0628745,61.7690804 64.8864587,61.1704984 Z M66.2703348,64.6964975 L85,64.6964975 L85,66.459497 L67.2501368,66.459497 C66.8974437,65.8884036 66.5703193,65.3002198 66.2703348,64.6964975 Z M68.4608659,68.2224966 L85,68.2224966 L85,69.9854961 L69.9525709,69.9854961 C69.4252913,69.4242201 68.9272584,68.8357655 68.4608659,68.2224966 Z M71.8104549,71.7484957 L85,71.7484957 L85,73.5114952 L74.2011422,73.5114952 C73.3639435,72.976067 72.5653693,72.3867427 71.8104549,71.7484957 Z M77.5531977,75.2744948 L85,75.2744948 L85,77 C82.3695414,76.8492958 79.8613515,76.2485244 77.5531977,75.2744948 Z" id="Combined-Shape-Copy-4" transform="translate(74.500000, 55.000000) scale(-1, 1) translate(-74.500000, -55.000000)"/></g></g></svg>