<svg width="21" height="44" xmlns="http://www.w3.org/2000/svg"><path d="M0 0v1.726h7.447A22.425 22.425 0 0 0 0 0zm10.799 3.489H0v1.763h13.19a22.376 22.376 0 0 0-2.391-1.763zm4.248 3.526H0v1.763h16.54a22.22 22.22 0 0 0-1.493-1.763zm2.703 3.526H0v1.763h18.73c-.3-.604-.627-1.192-.98-1.763zm1.76 3.526H0v1.763h20.114a21.68 21.68 0 0 0-.604-1.763zm1.044 3.526H0v1.763h20.841a21.734 21.734 0 0 0-.287-1.763zm.428 3.526H0v1.762h20.982a22.149 22.149 0 0 0 0-1.763zm-.141 3.525H0v1.763h20.554c.119-.58.215-1.167.287-1.763zm-.727 3.526H0v1.763h19.51a21.68 21.68 0 0 0 .604-1.763zm-1.384 3.526H0v1.763h17.75c.353-.57.68-1.159.98-1.763zm-2.19 3.526H0v1.763h15.047a22.22 22.22 0 0 0 1.492-1.763zm-3.35 3.526H0v1.763h10.799a22.376 22.376 0 0 0 2.39-1.763zm-5.743 3.526H0V44c2.63-.15 5.139-.751 7.447-1.726z" fill="#432648" fill-rule="evenodd" opacity=".3"/></svg>