<?xml version="1.0" encoding="UTF-8"?>
<svg width="108px" height="49px" viewBox="0 0 108 49" version="1.1" xmlns="http://www.w3.org/2000/svg" xmlns:xlink="http://www.w3.org/1999/xlink">
    <!-- Generator: Sketch 46.2 (44496) - http://www.bohemiancoding.com/sketch -->
    <title>Logo</title>
    <desc>Created with Sketch.</desc>
    <defs></defs>
    <g id="Page-1" stroke="none" stroke-width="1" fill="none" fill-rule="evenodd">
        <g id="Design-Direction-Sample-Copy" transform="translate(-64.000000, -44.000000)" fill="#FFFFFF">
            <g id="Logo" transform="translate(64.000000, 44.000000)">
                <path d="M21,1 L21,2.72550524 L13.5531977,2.72550524 C15.8613515,1.75147557 18.3695414,1.15070418 21,1 Z M10.2011422,4.48850478 L21,4.48850478 L21,6.25150433 L7.81045486,6.25150433 C8.56536927,5.61325725 9.36394352,5.02393295 10.2011422,4.48850478 Z M5.95257086,8.01450387 L21,8.01450387 L21,9.77750342 L4.46086589,9.77750342 C4.92725841,9.16423453 5.42529131,8.57577994 5.95257086,8.01450387 Z M3.2501368,11.540503 L21,11.540503 L21,13.3035025 L2.27033481,13.3035025 C2.57031931,12.6997802 2.8974437,12.1115964 3.2501368,11.540503 Z M1.48956209,15.0665021 L21,15.0665021 L21,16.8295016 L0.886458728,16.8295016 C1.06287447,16.2309196 1.26430638,15.6428605 1.48956209,15.0665021 Z M0.446330841,18.5925011 L21,18.5925011 L21,20.3555007 L0.158998845,20.3555007 C0.231078225,19.760219 0.327183955,19.1722282 0.446330841,18.5925011 Z M0.0175237783,22.1185002 L21,22.1185002 L21,23.8814998 L0.0175237783,23.8814998 C0.00587777473,23.5890989 0,23.2952274 0,23 C0,22.7047726 0.00587777473,22.4109011 0.0175240491,22.1184934 Z M0.158998845,25.6444993 L21,25.6444993 L21,27.4074989 L0.446330841,27.4074989 C0.327183955,26.8277718 0.231078225,26.239781 0.158998845,25.6444993 Z M0.886458728,29.1704984 L21,29.1704984 L21,30.9334979 L1.48956209,30.9334979 C1.26430638,30.3571395 1.06287447,29.7690804 0.886458728,29.1704984 Z M2.27033481,32.6964975 L21,32.6964975 L21,34.459497 L3.2501368,34.459497 C2.8974437,33.8884036 2.57031931,33.3002198 2.27033481,32.6964975 Z M4.46086589,36.2224966 L21,36.2224966 L21,37.9854961 L5.95257086,37.9854961 C5.42529131,37.4242201 4.92725841,36.8357655 4.46086589,36.2224966 Z M7.81045486,39.7484957 L21,39.7484957 L21,41.5114952 L10.2011422,41.5114952 C9.36394352,40.976067 8.56536927,40.3867427 7.81045486,39.7484957 Z M13.5531977,43.2744948 L21,43.2744948 L21,45 C18.3695414,44.8492958 15.8613515,44.2485244 13.5531977,43.2744948 Z" id="Combined-Shape"></path>
                <path d="M38.6035825,1.66684665 C39.4769383,2.03725887 40.2878994,2.6391697 41.0364901,3.47259719 L39.1256234,5.6950594 C38.6922288,5.033609 38.1833261,4.54745026 37.5989,4.23656857 C37.014474,3.92568689 36.3151432,3.77024838 35.5008866,3.77024838 C34.8179618,3.77024838 34.2926429,3.88930766 33.9249141,4.12742981 C33.5571853,4.36555195 33.3733237,4.68304337 33.3733237,5.07991361 C33.3733237,5.4106388 33.5670351,5.67852219 33.9544636,5.88357181 C34.3418921,6.08862144 35.001824,6.27713197 35.9342791,6.44910907 C37.7335233,6.77983427 39.0172715,7.26268581 39.7855619,7.89767819 C40.5538523,8.53267056 40.9379918,9.4256152 40.9379918,10.5765389 C40.9379918,11.4099664 40.7015983,12.1309365 40.2288042,12.7394708 C39.75601,13.3480052 39.1026446,13.8110135 38.2686883,14.1285097 C37.4347321,14.4460059 36.4924412,14.6047516 35.4417877,14.6047516 C33.9708726,14.6047516 32.7757721,14.4228555 31.8564502,14.0590578 C30.9371283,13.6952601 30.1425834,13.1363429 29.4727918,12.3822894 L31.2063615,10.0010799 C31.7185551,10.7154463 32.296406,11.2181411 32.9399313,11.5091793 C33.5834566,11.8002174 34.358302,11.9457343 35.2644907,11.9457343 C35.9868151,11.9457343 36.5285502,11.8432111 36.8897124,11.6381614 C37.2508746,11.4331118 37.431453,11.1387708 37.431453,10.7551296 C37.431453,10.4508624 37.2377416,10.2028222 36.8503131,10.0110016 C36.4628846,9.81918101 35.8160857,9.63728488 34.9098969,9.46530778 C33.7935775,9.24041464 32.8709861,8.97253125 32.1420952,8.66164957 C31.4132043,8.35076788 30.8484864,7.93075319 30.4479247,7.40159287 C30.0473631,6.87243256 29.8470852,6.19776328 29.8470852,5.37756479 C29.8470852,4.55736631 30.0670625,3.82316739 30.5070237,3.174946 C30.9469849,2.52672462 31.5905006,2.02072266 32.43759,1.65692495 C33.2846795,1.29312723 34.2860687,1.1112311 35.4417877,1.1112311 C36.6763056,1.1112311 37.7302267,1.29643443 38.6035825,1.66684665 Z M49.189959,13.8507019 C48.8616297,14.0755951 48.4446579,14.2574912 47.9390308,14.3963958 C47.4334038,14.5353004 46.9245011,14.6047516 46.4123074,14.6047516 C45.2434553,14.6047516 44.3504131,14.3534042 43.7331542,13.8507019 C43.1158952,13.3479996 42.8007038,12.5410423 42.7875707,11.4298056 L42.7875707,6.88566415 L41.0934002,6.88566415 L41.0934002,4.48461123 L42.7875707,4.48461123 L42.7875707,2.26214903 L46.1365122,1.32950864 L46.1365122,4.48461123 L49.0914607,4.48461123 L49.0914607,6.88566415 L46.1365122,6.88566415 L46.1365122,10.8741901 C46.1365122,11.7605336 46.5699004,12.2036987 47.4366896,12.2036987 C47.9751495,12.2036987 48.4479366,12.0581818 48.8550648,11.7671436 L49.189959,13.8507019 Z M60.1210795,12.4021328 L59.8649839,14.287257 C59.484122,14.4989211 59.0376009,14.6047516 58.5254073,14.6047516 C57.1070249,14.6047516 56.2599482,14.0954425 55.9841516,13.0768089 C55.393159,14.0954425 54.2243244,14.6047516 52.4776128,14.6047516 C51.492625,14.6047516 50.7374791,14.3930907 50.2121523,13.9697624 C49.6868255,13.5464342 49.424166,12.9312945 49.424166,12.1243251 C49.424166,11.2776686 49.7229412,10.5930777 50.3205004,10.0705319 C50.9180596,9.54798605 51.8997493,9.14781456 53.265599,8.8700054 L55.4916602,8.43345032 L55.4916602,8.0762689 C55.4916602,7.62648263 55.366897,7.26930478 55.1173667,7.00472462 C54.8678365,6.74014447 54.5263792,6.60785637 54.0929846,6.60785637 C53.5939241,6.60785637 53.186802,6.72691566 52.8716059,6.9650378 C52.5564098,7.20315994 52.3528487,7.59340982 52.2609165,8.13579914 L49.542364,7.34206263 C49.7130952,6.37634506 50.1858822,5.62561013 50.9607392,5.08983531 C51.7355962,4.5540605 52.7796676,4.28617711 54.0929846,4.28617711 C55.6295655,4.28617711 56.7984001,4.60366853 57.5995234,5.23866091 C58.4006468,5.87365328 58.8012025,6.82612756 58.8012025,8.09611231 L58.8012025,11.7076134 C58.8012025,12.2235447 59.037596,12.4815065 59.5103901,12.4815065 C59.7599203,12.4815065 59.9634814,12.4550489 60.1210795,12.4021328 Z M54.9400698,12.0350297 C55.3077986,11.777064 55.4916602,11.4364222 55.4916602,11.013094 L55.4916602,10.1598272 L53.895988,10.5368521 C53.4757266,10.6426841 53.1769515,10.771665 52.9996537,10.9237986 C52.8223559,11.0759322 52.7337083,11.2909003 52.7337083,11.5687095 C52.7337083,11.8465187 52.8190726,12.0581796 52.9898038,12.2036987 C53.160535,12.3492178 53.3969286,12.4219762 53.6989915,12.4219762 C54.1586524,12.4219762 54.5723411,12.2929954 54.9400698,12.0350297 Z M69.614125,5.19897408 C70.231384,5.80750844 70.5400089,6.67399546 70.5400089,7.79846112 L70.5400089,14.4063175 L67.1910673,14.4063175 L67.1910673,8.73110151 C67.1910673,8.05642211 67.0695873,7.57687777 66.8266236,7.2924541 C66.58366,7.00803044 66.2389194,6.86582073 65.7923917,6.86582073 C65.2670649,6.86582073 64.8402432,7.05433127 64.511914,7.43135799 C64.1835847,7.80838471 64.0194226,8.38714513 64.0194226,9.16765659 L64.0194226,14.4063175 L60.670481,14.4063175 L60.670481,4.48461123 L63.6648288,4.48461123 L63.7633271,6.38957883 C64.0785231,5.68844142 64.5250442,5.16259625 65.1029037,4.81202754 C65.6807632,4.46145883 66.3571113,4.28617711 67.1319683,4.28617711 C68.1694887,4.28617711 68.996866,4.59043972 69.614125,5.19897408 Z M75.8764269,4.48461123 L78.8707747,4.48461123 L78.8707747,6.88566415 L76.0734235,6.88566415 L76.0734235,14.4063175 L72.7244819,14.4063175 L72.7244819,6.88566415 L71.1485094,6.88566415 L71.1485094,4.48461123 L72.7244819,4.48461123 L72.7244819,3.57181425 C72.7244819,2.38120355 73.0922051,1.48825892 73.8276626,0.892953564 C74.5631202,0.297648211 75.5218272,0 76.7038125,0 C77.7281997,0 78.4833457,0.191817736 78.969273,0.575458963 L78.6343788,2.67886069 C78.3454491,2.46719657 77.9711593,2.36136609 77.5114984,2.36136609 C76.4214453,2.36136609 75.8764269,2.83760323 75.8764269,3.79009179 L75.8764269,4.48461123 Z M87.9008783,5.64545086 C88.8136336,6.5516379 89.2700044,7.8182964 89.2700044,9.44546436 C89.2700044,11.0726323 88.8136336,12.3392908 87.9008783,13.2454779 C86.988123,14.1516649 85.7109414,14.6047516 84.0692951,14.6047516 C82.4276489,14.6047516 81.1504673,14.1516649 80.237712,13.2454779 C79.3249566,12.3392908 78.8685858,11.0726323 78.8685858,9.44546436 C78.8685858,7.8182964 79.3249566,6.5516379 80.237712,5.64545086 C81.1504673,4.73926383 82.4276489,4.28617711 84.0692951,4.28617711 C85.7109414,4.28617711 86.988123,4.73926383 87.9008783,5.64545086 Z M82.6706195,7.34206263 C82.3685566,7.77861989 82.2175274,8.47974679 82.2175274,9.44546436 C82.2175274,10.4111819 82.3685566,11.1123088 82.6706195,11.5488661 C82.9726824,11.9854233 83.438903,12.2036987 84.0692951,12.2036987 C84.6996873,12.2036987 85.1659078,11.9854233 85.4679707,11.5488661 C85.7700337,11.1123088 85.9210628,10.4111819 85.9210628,9.44546436 C85.9210628,8.47974679 85.7700337,7.77861989 85.4679707,7.34206263 C85.1659078,6.90550538 84.6996873,6.68723002 84.0692951,6.68723002 C83.438903,6.68723002 82.9726824,6.90550538 82.6706195,7.34206263 Z M97.5810706,4.50445464 L97.2264768,7.36190605 C97.0951451,7.282532 96.9178499,7.21308075 96.6945861,7.15355022 C96.4713222,7.09401968 96.2349287,7.06425486 95.9853984,7.06425486 C95.3550063,7.06425486 94.8296874,7.2659942 94.4094259,7.66947894 C93.9891645,8.07296368 93.7790369,8.65172409 93.7790369,9.40577754 L93.7790369,14.4063175 L90.4300953,14.4063175 L90.4300953,4.48461123 L93.3850438,4.48461123 L93.5229414,6.62769978 C93.7593384,5.87364634 94.1303449,5.29488593 94.635972,4.89140119 C95.141599,4.48791645 95.7686985,4.28617711 96.5172892,4.28617711 C96.9638169,4.28617711 97.3184072,4.35893556 97.5810706,4.50445464 Z M108,0.277807775 L108,14.4063175 L104.985953,14.4063175 L104.867755,12.5211933 C104.578825,13.1694147 104.155287,13.6787238 103.597127,14.0491361 C103.038967,14.4195483 102.392168,14.6047516 101.656711,14.6047516 C100.382793,14.6047516 99.3879704,14.1549721 98.6722127,13.2553996 C97.9564549,12.355827 97.5985814,11.0990901 97.5985814,9.48515119 C97.5985814,7.84475422 97.9597382,6.56817411 98.6820625,5.65537257 C99.4043869,4.74257103 100.402493,4.28617711 101.67641,4.28617711 C102.372468,4.28617711 102.970019,4.45153722 103.469079,4.78226242 C103.968139,5.11298761 104.362129,5.56938154 104.651058,6.15145788 L104.651058,0.277807775 L108,0.277807775 Z M104.109318,11.5389444 C104.431081,11.1486887 104.611659,10.5831571 104.651058,9.84233261 L104.651058,9.04859611 C104.611659,8.32100068 104.431081,7.75877628 104.109318,7.36190605 C103.787555,6.96503581 103.35745,6.76660367 102.81899,6.76660367 C102.227998,6.76660367 101.771627,6.98487903 101.449864,7.42143629 C101.128102,7.85799354 100.967223,8.53266282 100.967223,9.44546436 C100.967223,10.3582659 101.128102,11.0329352 101.449864,11.4694924 C101.771627,11.9060497 102.227998,12.1243251 102.81899,12.1243251 C103.35745,12.1243251 103.787555,11.9292001 104.109318,11.5389444 Z M37.8057464,26.662932 L33.3142248,26.662932 L32.4080406,29.6196004 L29,29.6196004 L33.5703203,16.5229482 L37.6284495,16.5229482 L42.1790701,29.6196004 L38.692231,29.6196004 L37.8057464,26.662932 Z M37.0965588,24.3412527 L36.1509753,21.2059935 L35.5796852,19.1422786 L35.5402859,19.1422786 L35.0083952,21.1861501 L34.0234124,24.3412527 L37.0965588,24.3412527 Z M46.3138092,29.6196004 L42.9254682,29.6196004 L42.9254682,16.5229482 L46.3138092,16.5229482 L46.3138092,29.6196004 Z M42.0214729,37.7487851 L42.0214729,44.8328834 L39.6575141,44.8328834 L39.5590158,43.2850972 C38.8104252,44.4492499 37.5693592,45.0313175 35.8357808,45.0313175 C34.6537955,45.0313175 33.6064409,44.7700485 32.6936856,44.2475027 C31.7809303,43.7249569 31.0684665,42.9576859 30.5562729,41.9456668 C30.0440792,40.9336477 29.7879863,39.7199045 29.7879863,38.3044006 C29.7879863,36.9021258 30.0506457,35.694997 30.5759725,34.6829779 C31.1012993,33.6709588 31.8498788,32.8937662 32.8217333,32.3513769 C33.7935879,31.8089876 34.9427231,31.537797 36.2691732,31.537797 C37.7532214,31.537797 38.948322,31.8023732 39.8545107,32.3315335 C40.7606994,32.8606938 41.4764464,33.713952 42.0017732,34.8913337 L38.8695279,36.1414687 C38.7119298,35.4932473 38.4164379,35.0103958 37.9830433,34.6928996 C37.5496487,34.3754034 37.0111968,34.2166577 36.3676715,34.2166577 C35.3695506,34.2166577 34.6045549,34.5606067 34.0726615,35.2485151 C33.5407681,35.9364235 33.2748254,36.9484274 33.2748254,38.2845572 C33.2748254,41.0361909 34.3385963,42.411987 36.4661698,42.411987 C37.2672932,42.411987 37.9140921,42.2267837 38.4065859,41.8563715 C38.8990798,41.4859593 39.1453231,40.9501925 39.1453231,40.2490551 L39.1453231,40.050621 L35.9145794,40.050621 L35.9145794,37.7487851 L42.0214729,37.7487851 Z M50.7462318,34.9310205 L50.391638,37.7884719 C50.2603063,37.7090979 50.0830112,37.6396466 49.8597473,37.5801161 C49.6364834,37.5205856 49.4000899,37.4908207 49.1505597,37.4908207 C48.5201675,37.4908207 47.9948486,37.6925601 47.5745872,38.0960448 C47.1543257,38.4995296 46.9441982,39.07829 46.9441982,39.8323434 L46.9441982,44.8328834 L43.5952566,44.8328834 L43.5952566,34.9111771 L46.550205,34.9111771 L46.6881026,37.0542657 C46.9244997,36.3002122 47.2955062,35.7214518 47.8011332,35.3179671 C48.3067603,34.9144823 48.9338597,34.712743 49.6824504,34.712743 C50.1289782,34.712743 50.4835684,34.7855014 50.7462318,34.9310205 Z M59.7369362,36.0720167 C60.6496915,36.9782038 61.1060623,38.2448623 61.1060623,39.8720302 C61.1060623,41.4991982 60.6496915,42.7658567 59.7369362,43.6720437 C58.8241808,44.5782308 57.5469992,45.0313175 55.905353,45.0313175 C54.2637067,45.0313175 52.9865251,44.5782308 52.0737698,43.6720437 C51.1610145,42.7658567 50.7046437,41.4991982 50.7046437,39.8720302 C50.7046437,38.2448623 51.1610145,36.9782038 52.0737698,36.0720167 C52.9865251,35.1658297 54.2637067,34.712743 55.905353,34.712743 C57.5469992,34.712743 58.8241808,35.1658297 59.7369362,36.0720167 Z M54.5066774,37.7686285 C54.2046145,38.2051858 54.0535853,38.9063127 54.0535853,39.8720302 C54.0535853,40.8377478 54.2046145,41.5388747 54.5066774,41.975432 C54.8087403,42.4119892 55.2749608,42.6302646 55.905353,42.6302646 C56.5357451,42.6302646 57.0019657,42.4119892 57.3040286,41.975432 C57.6060915,41.5388747 57.7571207,40.8377478 57.7571207,39.8720302 C57.7571207,38.9063127 57.6060915,38.2051858 57.3040286,37.7686285 C57.0019657,37.3320713 56.5357451,37.1137959 55.905353,37.1137959 C55.2749608,37.1137959 54.8087403,37.3320713 54.5066774,37.7686285 Z M72.0765821,34.9111771 L72.0765821,44.8328834 L69.0822343,44.8328834 L68.983736,42.987446 C68.366477,44.3500338 67.2304749,45.0313175 65.5756954,45.0313175 C64.5250418,45.0313175 63.7009478,44.7502053 63.1033886,44.1879725 C62.5058293,43.6257396 62.2070542,42.7427166 62.2070542,41.5388769 L62.2070542,34.9111771 L65.5559958,34.9111771 L65.5559958,40.6856102 C65.5559958,41.3338315 65.6676261,41.7902255 65.8908899,42.0548056 C66.1141538,42.3193858 66.4556111,42.4516739 66.9152721,42.4516739 C67.4668652,42.4516739 67.9068198,42.2631633 68.2351491,41.8861366 C68.5634783,41.5091099 68.7276405,40.9369639 68.7276405,40.1696814 L68.7276405,34.9111771 L72.0765821,34.9111771 Z M83.0274022,36.062095 C83.7365934,36.9616676 84.0911836,38.2184045 84.0911836,39.8323434 C84.0911836,41.4727404 83.7300269,42.7493205 83.0077025,43.662122 C82.2853782,44.5749236 81.2938387,45.0313175 80.0330544,45.0313175 C79.3369964,45.0313175 78.7361629,44.8659574 78.2305359,44.5352322 C77.7249088,44.204507 77.3342029,43.7481131 77.0584063,43.1660367 L77.0584063,49 L73.7094647,49 L73.7094647,34.9111771 L76.6447135,34.9111771 L76.7432118,37.0145788 C77.0190084,36.3134414 77.4425467,35.7545242 78.0138396,35.3378105 C78.5851325,34.9210967 79.2581974,34.712743 80.0330544,34.712743 C81.3201051,34.712743 82.318211,35.1625225 83.0274022,36.062095 Z M80.2399008,41.8960583 C80.5616635,41.4595011 80.7225424,40.7848318 80.7225424,39.8720302 C80.7225424,38.9592287 80.5616635,38.2845594 80.2399008,37.8480022 C79.9181381,37.4114449 79.4617673,37.1931695 78.8707747,37.1931695 C78.3060484,37.1931695 77.8628105,37.4114449 77.5410479,37.8480022 C77.2192852,38.2845594 77.0584063,38.9261567 77.0584063,39.7728132 L77.0584063,39.9712473 C77.0584063,40.7914458 77.216002,41.4264286 77.531198,41.8762149 C77.8463941,42.3260012 78.2929152,42.5508909 78.8707747,42.5508909 C79.4617673,42.5508909 79.9181381,42.3326156 80.2399008,41.8960583 Z" id="Stanford-AI-Group"></path>
            </g>
        </g>
    </g>
</svg>