<svg width="108" height="53" xmlns="http://www.w3.org/2000/svg" xmlns:xlink="http://www.w3.org/1999/xlink"><defs><ellipse id="a" cx="23.1" cy="23.188" rx="23.1" ry="23.188"/></defs><g fill="none" fill-rule="evenodd"><path d="M40.174 29.25h-4.781l-.965 3.143H30.8l4.865-13.925h4.32l4.845 13.925h-3.712l-.944-3.143zm-.755-2.469l-1.006-3.334-.608-2.194h-.042l-.567 2.173-1.048 3.355h3.271zm9.813 5.612h-3.607V18.468h3.607v13.925zm-4.57 8.644v7.532h-2.516l-.105-1.645c-.797 1.237-2.118 1.856-3.964 1.856-1.258 0-2.373-.278-3.345-.833-.972-.556-1.73-1.372-2.275-2.448-.546-1.076-.818-2.366-.818-3.871 0-1.491.28-2.775.839-3.85a5.87 5.87 0 0 1 2.39-2.48c1.035-.577 2.258-.865 3.67-.865 1.58 0 2.853.281 3.817.844.965.563 1.727 1.47 2.286 2.722l-3.334 1.329c-.168-.69-.483-1.203-.944-1.54-.461-.338-1.035-.507-1.72-.507-1.062 0-1.877.366-2.443 1.097-.566.732-.85 1.808-.85 3.229 0 2.925 1.133 4.388 3.398 4.388.853 0 1.542-.197 2.066-.59.524-.394.786-.964.786-1.71v-.21h-3.439v-2.448h6.501zm9.288-2.996l-.377 3.038a2.215 2.215 0 0 0-.566-.221 2.923 2.923 0 0 0-.755-.095c-.671 0-1.23.214-1.678.643-.447.43-.671 1.045-.671 1.846v5.317h-3.565V38.02h3.145l.147 2.28c.252-.802.647-1.418 1.185-1.847.538-.429 1.206-.643 2.003-.643.475 0 .853.077 1.132.232zm9.572 1.213c.971.964 1.457 2.31 1.457 4.04s-.486 3.077-1.457 4.04c-.972.964-2.332 1.446-4.08 1.446-1.747 0-3.107-.482-4.078-1.445-.972-.964-1.458-2.31-1.458-4.04s.486-3.077 1.458-4.04c.971-.964 2.331-1.446 4.079-1.446 1.747 0 3.107.482 4.079 1.445zm-5.568 1.804c-.322.464-.483 1.21-.483 2.237 0 1.026.161 1.772.483 2.236.321.464.818.696 1.489.696.67 0 1.167-.232 1.489-.696.321-.464.482-1.21.482-2.236 0-1.027-.16-1.773-.482-2.237-.322-.464-.818-.696-1.49-.696-.67 0-1.167.232-1.488.696zm18.704-3.038v10.55H73.47l-.104-1.963c-.658 1.449-1.867 2.173-3.629 2.173-1.118 0-1.995-.299-2.632-.896-.636-.598-.954-1.537-.954-2.817V38.02h3.565v6.14c0 .689.12 1.174.357 1.455.238.282.601.422 1.09.422.588 0 1.056-.2 1.406-.601.35-.4.524-1.01.524-1.825V38.02h3.565zm11.658 1.224c.755.956 1.132 2.292 1.132 4.008 0 1.744-.384 3.102-1.153 4.072-.769.97-1.824 1.456-3.167 1.456-.74 0-1.38-.176-1.919-.527a3.474 3.474 0 0 1-1.247-1.456V53h-3.566V38.02h3.125l.105 2.236c.294-.745.745-1.34 1.353-1.783.608-.443 1.324-.664 2.15-.664 1.37 0 2.432.478 3.187 1.435zm-2.967 6.203c-.343.464-.829.696-1.458.696-.615 0-1.09-.24-1.426-.718-.336-.478-.503-1.153-.503-2.025v-.211c0-.9.17-1.582.513-2.047.343-.464.815-.696 1.416-.696.63 0 1.115.232 1.458.696.342.465.513 1.182.513 2.153 0 .97-.17 1.687-.513 2.152zM37.415.834c1.252 0 2.321.185 3.207.555.886.37 1.709.973 2.468 1.806l-1.938 2.223c-.44-.661-.956-1.147-1.549-1.458-.593-.311-1.302-.467-2.128-.467-.693 0-1.226.12-1.599.357-.373.239-.56.556-.56.953 0 .33.197.599.59.804.393.205 1.063.394 2.008.566 1.826.33 3.128.813 3.907 1.449.78.635 1.17 1.528 1.17 2.679 0 .834-.24 1.555-.72 2.163-.48.609-1.142 1.072-1.988 1.39-.846.317-1.802.476-2.868.476-1.492 0-2.705-.182-3.637-.546a6.295 6.295 0 0 1-2.418-1.677l1.758-2.382c.52.715 1.106 1.218 1.759 1.509.653.29 1.439.436 2.358.436.733 0 1.282-.102 1.649-.307.366-.205.55-.5.55-.883 0-.305-.197-.553-.59-.745-.393-.192-1.05-.373-1.969-.546-1.132-.224-2.068-.492-2.808-.803-.739-.311-1.312-.731-1.718-1.26-.407-.53-.61-1.205-.61-2.025 0-.82.223-1.555.67-2.203.446-.649 1.099-1.155 1.958-1.519.86-.363 1.875-.545 3.048-.545zM51.81 13.576c-.333.225-.756.407-1.269.546a5.9 5.9 0 0 1-1.549.208c-1.185 0-2.091-.251-2.717-.754-.627-.503-.946-1.31-.96-2.422V6.61h-1.718V4.208h1.718V1.985l3.398-.933v3.156h2.997v2.401h-2.997v3.99c0 .886.44 1.33 1.319 1.33.546 0 1.026-.146 1.439-.437l.34 2.084zm11.058-9.368v9.924h-3.037l-.1-1.846c-.626 1.363-1.779 2.044-3.458 2.044-1.065 0-1.901-.281-2.508-.843-.606-.563-.909-1.446-.909-2.65v-6.63h3.397v5.776c0 .649.114 1.105.34 1.37.227.265.573.397 1.04.397.559 0 1.005-.189 1.338-.566.333-.377.5-.95.5-1.717v-5.26h3.397zM75.105 0v14.132h-3.057l-.12-1.886a3.507 3.507 0 0 1-1.289 1.528c-.566.37-1.222.556-1.969.556-1.292 0-2.301-.45-3.027-1.35-.726-.9-1.09-2.156-1.09-3.77 0-1.641.367-2.918 1.1-3.831.733-.913 1.745-1.37 3.037-1.37.707 0 1.313.166 1.82.496.505.331.905.788 1.198 1.37V0h3.397zM69.85 11.85c.546 0 .982-.196 1.309-.586.326-.39.51-.956.55-1.697v-.794c-.04-.728-.224-1.29-.55-1.687-.327-.397-.763-.596-1.31-.596-.599 0-1.062.219-1.388.655-.327.437-.49 1.112-.49 2.025 0 .913.163 1.587.49 2.024.326.437.789.655 1.389.655zm17.073-2.82c0 .45-.033.821-.1 1.112h-6.815c.107.622.337 1.079.69 1.37.353.29.822.436 1.409.436.493 0 .896-.092 1.209-.278.313-.185.523-.456.63-.813l2.757.873c-.28.847-.823 1.492-1.629 1.935-.806.443-1.795.665-2.967.665-1.746 0-3.081-.45-4.007-1.35-.926-.9-1.39-2.17-1.39-3.81 0-1.641.454-2.911 1.36-3.811.906-.9 2.191-1.35 3.857-1.35 1.612 0 2.848.44 3.707 1.32.86.88 1.289 2.114 1.289 3.702zm-5.016-2.659c-1.08 0-1.719.648-1.919 1.945h3.757c-.16-1.297-.772-1.945-1.838-1.945zM95.043 4.01c1.053 0 1.892.305 2.518.913.626.609.94 1.476.94 2.6v6.61h-3.398V8.455c0-.675-.123-1.154-.37-1.439-.246-.284-.596-.427-1.049-.427-.533 0-.966.189-1.299.566-.333.377-.5.956-.5 1.737v5.24h-3.397V4.208h3.038l.1 1.905c.32-.701.773-1.227 1.359-1.578.586-.35 1.272-.526 2.058-.526zm12.757 9.567c-.333.225-.756.407-1.269.546a5.9 5.9 0 0 1-1.549.208c-1.186 0-2.092-.251-2.718-.754-.626-.503-.946-1.31-.959-2.422V6.61h-1.719V4.208h1.72V1.985l3.396-.933v3.156h2.998v2.401h-2.998v3.99c0 .886.44 1.33 1.32 1.33.546 0 1.025-.146 1.438-.437l.34 2.084z" fill="#FFF"/><g transform="translate(0 2.008)"><mask id="b" fill="#fff"><use xlink:href="#a"/></mask><path d="M-1.359 0h23.1v1.855h-23.1V0zm0 3.71h23.1v1.855h-23.1V3.71zm0 3.71h23.1v1.855h-23.1V7.42zm0 3.71h23.1v1.855h-23.1V11.13zm0 3.71h23.1v1.855h-23.1V14.84zm0 3.71h23.1v1.855h-23.1V18.55zm0 3.71h23.1v1.855h-23.1V22.26zm0 3.71h23.1v1.855h-23.1V25.97zm0 3.71h23.1v1.855h-23.1V29.68zm0 3.71h23.1v1.855h-23.1V33.39zm0 3.71h23.1v1.855h-23.1V37.1zm0 3.71h23.1v1.855h-23.1V40.81zm0 3.71h23.1v1.855h-23.1V44.52z" fill="#FFF" mask="url(#b)"/></g></g></svg>